<mxfile host="Electron" modified="2023-12-21T11:47:40.430Z" agent="Mozilla/5.0 (Windows NT 10.0; Win64; x64) AppleWebKit/537.36 (KHTML, like Gecko) draw.io/22.1.2 Chrome/114.0.5735.289 Electron/25.9.4 Safari/537.36" etag="CenbPMDYkISrhRm8R8ip" version="22.1.2" type="device">
  <diagram name="Страница — 1" id="CURLQgM5WIRbB1u5cZCu">
    <mxGraphModel dx="1480" dy="877" grid="1" gridSize="10" guides="1" tooltips="1" connect="1" arrows="1" fold="1" page="1" pageScale="1" pageWidth="827" pageHeight="1169" math="0" shadow="0">
      <root>
        <mxCell id="0" />
        <mxCell id="1" parent="0" />
        <mxCell id="IvTxHMmo8_5TZ_ZQor-f-6" style="edgeStyle=orthogonalEdgeStyle;rounded=0;orthogonalLoop=1;jettySize=auto;html=1;dashed=1;dashPattern=8 8;endArrow=none;endFill=0;" edge="1" parent="1" source="IvTxHMmo8_5TZ_ZQor-f-1" target="IvTxHMmo8_5TZ_ZQor-f-5">
          <mxGeometry relative="1" as="geometry" />
        </mxCell>
        <mxCell id="IvTxHMmo8_5TZ_ZQor-f-1" value="Неавторизованый пользователь" style="shape=umlActor;verticalLabelPosition=bottom;verticalAlign=top;html=1;outlineConnect=0;" vertex="1" parent="1">
          <mxGeometry x="90" y="100" width="30" height="60" as="geometry" />
        </mxCell>
        <mxCell id="IvTxHMmo8_5TZ_ZQor-f-11" style="edgeStyle=orthogonalEdgeStyle;rounded=0;orthogonalLoop=1;jettySize=auto;html=1;entryX=0;entryY=0.75;entryDx=0;entryDy=0;" edge="1" parent="1" source="IvTxHMmo8_5TZ_ZQor-f-5" target="IvTxHMmo8_5TZ_ZQor-f-7">
          <mxGeometry relative="1" as="geometry" />
        </mxCell>
        <mxCell id="IvTxHMmo8_5TZ_ZQor-f-12" value="Ввод логина и пароля" style="edgeLabel;html=1;align=center;verticalAlign=middle;resizable=0;points=[];" vertex="1" connectable="0" parent="IvTxHMmo8_5TZ_ZQor-f-11">
          <mxGeometry x="-0.138" y="5" relative="1" as="geometry">
            <mxPoint as="offset" />
          </mxGeometry>
        </mxCell>
        <mxCell id="IvTxHMmo8_5TZ_ZQor-f-5" value="" style="rounded=0;whiteSpace=wrap;html=1;" vertex="1" parent="1">
          <mxGeometry x="92.5" y="220" width="25" height="390" as="geometry" />
        </mxCell>
        <mxCell id="IvTxHMmo8_5TZ_ZQor-f-13" style="edgeStyle=orthogonalEdgeStyle;rounded=0;orthogonalLoop=1;jettySize=auto;html=1;dashed=1;dashPattern=8 8;endArrow=none;endFill=0;" edge="1" parent="1" source="IvTxHMmo8_5TZ_ZQor-f-7">
          <mxGeometry relative="1" as="geometry">
            <mxPoint x="322.4999999999998" y="770" as="targetPoint" />
          </mxGeometry>
        </mxCell>
        <mxCell id="IvTxHMmo8_5TZ_ZQor-f-14" style="edgeStyle=orthogonalEdgeStyle;rounded=0;orthogonalLoop=1;jettySize=auto;html=1;" edge="1" parent="1" source="IvTxHMmo8_5TZ_ZQor-f-7" target="IvTxHMmo8_5TZ_ZQor-f-9">
          <mxGeometry relative="1" as="geometry" />
        </mxCell>
        <mxCell id="IvTxHMmo8_5TZ_ZQor-f-15" value="Передача данных" style="edgeLabel;html=1;align=center;verticalAlign=middle;resizable=0;points=[];" vertex="1" connectable="0" parent="IvTxHMmo8_5TZ_ZQor-f-14">
          <mxGeometry x="0.1063" y="-4" relative="1" as="geometry">
            <mxPoint as="offset" />
          </mxGeometry>
        </mxCell>
        <mxCell id="IvTxHMmo8_5TZ_ZQor-f-7" value="" style="rounded=0;whiteSpace=wrap;html=1;" vertex="1" parent="1">
          <mxGeometry x="310" y="200" width="25" height="280" as="geometry" />
        </mxCell>
        <mxCell id="IvTxHMmo8_5TZ_ZQor-f-18" style="edgeStyle=orthogonalEdgeStyle;rounded=0;orthogonalLoop=1;jettySize=auto;html=1;entryX=1;entryY=0.75;entryDx=0;entryDy=0;" edge="1" parent="1" source="IvTxHMmo8_5TZ_ZQor-f-8" target="IvTxHMmo8_5TZ_ZQor-f-9">
          <mxGeometry relative="1" as="geometry" />
        </mxCell>
        <mxCell id="IvTxHMmo8_5TZ_ZQor-f-19" value="Получение результата" style="edgeLabel;html=1;align=center;verticalAlign=middle;resizable=0;points=[];" vertex="1" connectable="0" parent="IvTxHMmo8_5TZ_ZQor-f-18">
          <mxGeometry x="0.2396" y="-3" relative="1" as="geometry">
            <mxPoint as="offset" />
          </mxGeometry>
        </mxCell>
        <mxCell id="IvTxHMmo8_5TZ_ZQor-f-31" style="edgeStyle=orthogonalEdgeStyle;rounded=0;orthogonalLoop=1;jettySize=auto;html=1;dashed=1;dashPattern=8 8;endArrow=none;endFill=0;" edge="1" parent="1" source="IvTxHMmo8_5TZ_ZQor-f-8">
          <mxGeometry relative="1" as="geometry">
            <mxPoint x="814.5" y="730" as="targetPoint" />
          </mxGeometry>
        </mxCell>
        <mxCell id="IvTxHMmo8_5TZ_ZQor-f-8" value="" style="rounded=0;whiteSpace=wrap;html=1;" vertex="1" parent="1">
          <mxGeometry x="802" y="190" width="25" height="280" as="geometry" />
        </mxCell>
        <mxCell id="IvTxHMmo8_5TZ_ZQor-f-16" style="edgeStyle=orthogonalEdgeStyle;rounded=0;orthogonalLoop=1;jettySize=auto;html=1;entryX=0;entryY=0.25;entryDx=0;entryDy=0;" edge="1" parent="1" source="IvTxHMmo8_5TZ_ZQor-f-9" target="IvTxHMmo8_5TZ_ZQor-f-8">
          <mxGeometry relative="1" as="geometry" />
        </mxCell>
        <mxCell id="IvTxHMmo8_5TZ_ZQor-f-17" value="Поиск по данным" style="edgeLabel;html=1;align=center;verticalAlign=middle;resizable=0;points=[];" vertex="1" connectable="0" parent="IvTxHMmo8_5TZ_ZQor-f-16">
          <mxGeometry x="0.2151" y="4" relative="1" as="geometry">
            <mxPoint as="offset" />
          </mxGeometry>
        </mxCell>
        <mxCell id="IvTxHMmo8_5TZ_ZQor-f-20" style="edgeStyle=orthogonalEdgeStyle;rounded=0;orthogonalLoop=1;jettySize=auto;html=1;entryX=0;entryY=0.75;entryDx=0;entryDy=0;" edge="1" parent="1" source="IvTxHMmo8_5TZ_ZQor-f-9" target="IvTxHMmo8_5TZ_ZQor-f-10">
          <mxGeometry relative="1" as="geometry">
            <Array as="points">
              <mxPoint x="813" y="500" />
              <mxPoint x="813" y="550" />
            </Array>
          </mxGeometry>
        </mxCell>
        <mxCell id="IvTxHMmo8_5TZ_ZQor-f-21" value="Отображение результата" style="edgeLabel;html=1;align=center;verticalAlign=middle;resizable=0;points=[];" vertex="1" connectable="0" parent="IvTxHMmo8_5TZ_ZQor-f-20">
          <mxGeometry x="-0.2021" y="2" relative="1" as="geometry">
            <mxPoint as="offset" />
          </mxGeometry>
        </mxCell>
        <mxCell id="IvTxHMmo8_5TZ_ZQor-f-30" style="edgeStyle=orthogonalEdgeStyle;rounded=0;orthogonalLoop=1;jettySize=auto;html=1;dashed=1;dashPattern=8 8;endArrow=none;endFill=0;" edge="1" parent="1" source="IvTxHMmo8_5TZ_ZQor-f-9">
          <mxGeometry relative="1" as="geometry">
            <mxPoint x="602.5" y="720" as="targetPoint" />
          </mxGeometry>
        </mxCell>
        <mxCell id="IvTxHMmo8_5TZ_ZQor-f-9" value="" style="rounded=0;whiteSpace=wrap;html=1;" vertex="1" parent="1">
          <mxGeometry x="590" y="190" width="25" height="330" as="geometry" />
        </mxCell>
        <mxCell id="IvTxHMmo8_5TZ_ZQor-f-32" style="edgeStyle=orthogonalEdgeStyle;rounded=0;orthogonalLoop=1;jettySize=auto;html=1;endArrow=none;endFill=0;dashed=1;dashPattern=8 8;" edge="1" parent="1" source="IvTxHMmo8_5TZ_ZQor-f-10">
          <mxGeometry relative="1" as="geometry">
            <mxPoint x="1022.5" y="750" as="targetPoint" />
          </mxGeometry>
        </mxCell>
        <mxCell id="IvTxHMmo8_5TZ_ZQor-f-10" value="" style="rounded=0;whiteSpace=wrap;html=1;" vertex="1" parent="1">
          <mxGeometry x="1010" y="340" width="25" height="280" as="geometry" />
        </mxCell>
        <mxCell id="IvTxHMmo8_5TZ_ZQor-f-23" style="edgeStyle=orthogonalEdgeStyle;rounded=0;orthogonalLoop=1;jettySize=auto;html=1;entryX=0.25;entryY=0;entryDx=0;entryDy=0;dashed=1;dashPattern=8 8;endArrow=none;endFill=0;" edge="1" parent="1" source="IvTxHMmo8_5TZ_ZQor-f-22" target="IvTxHMmo8_5TZ_ZQor-f-7">
          <mxGeometry relative="1" as="geometry" />
        </mxCell>
        <mxCell id="IvTxHMmo8_5TZ_ZQor-f-22" value="Форма авторизации" style="rounded=0;whiteSpace=wrap;html=1;" vertex="1" parent="1">
          <mxGeometry x="262" y="80" width="120" height="60" as="geometry" />
        </mxCell>
        <mxCell id="IvTxHMmo8_5TZ_ZQor-f-25" style="edgeStyle=orthogonalEdgeStyle;rounded=0;orthogonalLoop=1;jettySize=auto;html=1;entryX=0.5;entryY=0;entryDx=0;entryDy=0;dashed=1;dashPattern=8 8;endArrow=none;endFill=0;" edge="1" parent="1" source="IvTxHMmo8_5TZ_ZQor-f-24" target="IvTxHMmo8_5TZ_ZQor-f-9">
          <mxGeometry relative="1" as="geometry" />
        </mxCell>
        <mxCell id="IvTxHMmo8_5TZ_ZQor-f-24" value="Обработка данных" style="rounded=0;whiteSpace=wrap;html=1;" vertex="1" parent="1">
          <mxGeometry x="550" y="60" width="120" height="60" as="geometry" />
        </mxCell>
        <mxCell id="IvTxHMmo8_5TZ_ZQor-f-27" style="edgeStyle=orthogonalEdgeStyle;rounded=0;orthogonalLoop=1;jettySize=auto;html=1;dashed=1;dashPattern=8 8;endArrow=none;endFill=0;" edge="1" parent="1" source="IvTxHMmo8_5TZ_ZQor-f-26" target="IvTxHMmo8_5TZ_ZQor-f-8">
          <mxGeometry relative="1" as="geometry" />
        </mxCell>
        <mxCell id="IvTxHMmo8_5TZ_ZQor-f-26" value="База данных&amp;nbsp;" style="rounded=0;whiteSpace=wrap;html=1;" vertex="1" parent="1">
          <mxGeometry x="750" y="60" width="120" height="60" as="geometry" />
        </mxCell>
        <mxCell id="IvTxHMmo8_5TZ_ZQor-f-29" style="edgeStyle=orthogonalEdgeStyle;rounded=0;orthogonalLoop=1;jettySize=auto;html=1;endArrow=none;endFill=0;dashed=1;dashPattern=8 8;" edge="1" parent="1" source="IvTxHMmo8_5TZ_ZQor-f-28" target="IvTxHMmo8_5TZ_ZQor-f-10">
          <mxGeometry relative="1" as="geometry" />
        </mxCell>
        <mxCell id="IvTxHMmo8_5TZ_ZQor-f-28" value="Интерфейс приложения" style="rounded=0;whiteSpace=wrap;html=1;" vertex="1" parent="1">
          <mxGeometry x="980" y="70" width="120" height="60" as="geometry" />
        </mxCell>
      </root>
    </mxGraphModel>
  </diagram>
</mxfile>
